<?xml version="1.0" encoding="UTF-8"?>
<!-- Created with Inkscape (http://www.inkscape.org/) -->
<svg width="480mm" height="64mm" version="1.1" viewBox="0 0 480 64" xmlns="http://www.w3.org/2000/svg">
 <g fill="#336690">
  <g stroke-linecap="round" stroke-linejoin="round" stroke-width=".26458" aria-label="benmakesgames com">
   <path d="m30.646 26.731q-2.8525 0-4.8575 2.005-1.9844 2.005-1.9844 4.8575 0 2.8318 1.9844 4.8369 2.005 2.005 4.8575 2.005 2.8318 0 4.8369-2.005 2.005-2.005 2.005-4.8369 0-2.8525-2.005-4.8575-2.005-2.005-4.8369-2.005zm-9.343-13.58q1.0128 0 1.757 0.72346 0.74414 0.74414 0.74414 1.7777v8.0408q2.3358-2.067 6.8419-2.067 4.9196 0 8.4129 3.4933 3.4933 3.4933 3.4933 8.4129 0 4.9196-3.4933 8.4129-3.4933 3.4933-8.4129 3.4933-4.9196 0-8.3922-3.4726-3.4933-3.452-3.514-8.3715v-17.942q0-1.0335 0.74414-1.7777 0.74414-0.72346 1.757-0.72346z"/>
   <path d="m57.352 26.731q-2.8525 0-4.8575 2.005-1.9844 2.005-1.9844 4.8575v0.14469l11.555-5.1883q-1.5296-1.819-4.7129-1.819zm10.811 1.8397q0.24804 0.51676 0.24804 1.0542 0 0.43408-0.16536 0.86816-0.3514 0.97151-1.3229 1.4056-2.8939 1.3022-7.6067 3.4313-5.8497 2.6458-6.8626 3.1212 1.571 1.9844 4.8989 1.9844 2.2117 0 4.0101-1.3022 1.757-1.2816 2.4598-3.3073 0.59944-1.695 2.3978-1.695 1.2816 0 2.0464 1.0749 0.47542 0.66145 0.47542 1.3849 0 0.43408-0.16536 0.88883-1.2196 3.5346-4.2788 5.705-3.1006 2.2531-6.9453 2.2531-4.9196 0-8.4129-3.4933-3.4933-3.4933-3.4933-8.4129 0-4.9196 3.4933-8.4129 3.4933-3.4933 8.4129-3.4933 3.5553 0 6.4905 1.943 2.9145 1.9017 4.3201 5.0022z"/>
   <path d="m77.526 42.937q0 1.0542-0.74413 1.757-0.74414 0.74414-1.757 0.74414h-0.06201q-1.0129 0-1.757-0.74414-0.74414-0.70279-0.74414-1.757v-11.307q0-4.1341 2.9352-7.0693 2.9352-2.9352 7.0693-2.9352 4.1134 0 7.0486 2.9352 2.9352 2.9352 2.9352 7.0693v11.307q0 1.0542-0.74414 1.757-0.70279 0.74414-1.757 0.74414h-0.04134q-1.0335 0-1.7777-0.74414-0.74414-0.70279-0.74414-1.757v-11.307q0-2.0464-1.4263-3.4933-1.4469-1.4469-3.4933-1.4469-2.067 0-3.514 1.4469-1.4263 1.4469-1.4263 3.4933z"/>
   <path d="m101.65 42.937q0 1.0542-0.74414 1.757-0.74413 0.74414-1.757 0.74414h-0.06201q-1.0128 0-1.757-0.74414-0.74414-0.70279-0.74414-1.757v-11.369q0-4.0927 2.9145-7.0279 2.9145-2.9145 7.0279-2.9145 4.9196 0 7.4207 3.2659 2.4804-3.2659 7.4-3.2659 4.1134 0 7.0279 2.9145 2.9145 2.9352 2.9145 7.0279v11.369q0 1.0335-0.72346 1.757-0.74414 0.74414-1.7777 0.74414h-0.0413q-1.0542 0-1.757-0.74414-0.74414-0.70279-0.74414-1.757v-11.369q0-2.0257-1.4262-3.452-1.4263-1.4263-3.4726-1.4263-2.0257 0-3.452 1.4263t-1.4263 3.452v11.369q0 1.0542-0.74414 1.757-0.70279 0.74414-1.757 0.74414h-0.0413q-1.0335 0-1.7777-0.74414-0.74413-0.70279-0.74413-1.757v-11.369q0-2.0257-1.4263-3.452t-3.452-1.4263-3.452 1.4263q-1.4262 1.4263-1.4262 3.452z"/>
   <path d="m147.33 21.626q4.9196 0 8.4129 3.4933 3.4933 3.4933 3.4933 8.4129v9.405q0 1.0542-0.74414 1.757-0.74413 0.74414-1.757 0.74414h-0.062q-1.0128 0-1.757-0.74414-0.74413-0.70279-0.74413-1.757-2.3564 2.5011-6.8419 2.5011-4.9196 0-8.4129-3.4933-3.4933-3.4933-3.4933-8.4129 0-4.9196 3.4933-8.4129 3.4933-3.4933 8.4129-3.4933zm0 5.0643q-2.8525 0-4.8576 2.005-1.9844 2.005-1.9844 4.8369 0 2.8525 1.9844 4.8575 2.005 1.9844 4.8576 1.9844t4.8369-1.9844q2.005-2.005 2.005-4.8575 0-2.8318-2.005-4.8369-2.005-2.005-4.8369-2.005z"/>
   <path d="m165.93 13.151q1.0128 0 1.757 0.72346 0.74413 0.74414 0.74413 1.7777v14.325h0.78548q2.6458 0 4.6095-1.757 1.9224-1.757 2.1911-4.3408 0.12402-0.97151 0.82682-1.5916 0.70279-0.66145 1.6743-0.66145h0.062q1.0955 0 1.8397 0.82682 0.66145 0.72346 0.66145 1.6743 0 0.12402-0.0207 0.26872-0.49609 5.1883-3.9687 7.7721 1.819 1.1162 3.3486 3.7827 1.5916 2.7492 1.5916 5.9324v1.0542q0 1.0542-0.74413 1.757-0.74414 0.74414-1.757 0.74414h-0.062q-1.0128 0-1.757-0.74414-0.74413-0.70279-0.74413-1.757v-1.0542q-0.0207-2.8112-2.005-4.8162-2.005-1.9844-4.8369-1.9844h-1.695v7.8548q0 1.0542-0.74413 1.757-0.74414 0.74414-1.757 0.74414h-0.062q-1.0128 0-1.757-0.74414-0.74413-0.70279-0.74413-1.757v-27.285q0-1.0335 0.74413-1.7777 0.74414-0.72346 1.757-0.72346z"/>
   <path d="m196.84 26.731q-2.8525 0-4.8576 2.005-1.9844 2.005-1.9844 4.8575v0.14469l11.555-5.1883q-1.5296-1.819-4.7128-1.819zm10.811 1.8397q0.24804 0.51676 0.24804 1.0542 0 0.43408-0.16536 0.86816-0.3514 0.97151-1.3229 1.4056-2.8939 1.3022-7.6067 3.4313-5.8497 2.6458-6.8626 3.1212 1.571 1.9844 4.8989 1.9844 2.2117 0 4.01-1.3022 1.757-1.2816 2.4598-3.3073 0.59945-1.695 2.3978-1.695 1.2816 0 2.0464 1.0749 0.47542 0.66145 0.47542 1.3849 0 0.43408-0.16536 0.88883-1.2196 3.5346-4.2788 5.705-3.1006 2.2531-6.9452 2.2531-4.9196 0-8.4129-3.4933-3.4933-3.4933-3.4933-8.4129 0-4.9196 3.4933-8.4129 3.4933-3.4933 8.4129-3.4933 3.5553 0 6.4905 1.943 2.9145 1.9017 4.3201 5.0022z"/>
   <path d="m218.35 26.69q-0.9095 0-1.5296 0.62011-0.62012 0.64078-0.62012 1.5296 0 1.2402 1.1989 1.8603 0.41341 0.22738 3.452 1.0335 2.4598 0.70279 3.6587 1.8397 1.7156 1.633 1.7156 4.6508 0 2.9765-2.1084 5.1056-2.129 2.1084-5.1056 2.1084h-5.395q-1.0128 0-1.757-0.74414-0.74414-0.70279-0.74414-1.757v-0.04134q0-1.0335 0.74414-1.7777 0.74413-0.74414 1.757-0.74414h5.6017q0.9095 0 1.5296-0.62011 0.62012-0.62011 0.62012-1.5296 0-1.1369-1.1782-1.7156-0.31005-0.14469-3.4726-1.0335-2.4598-0.72346-3.6587-1.9017-1.7156-1.6743-1.7156-4.7335 0-2.9765 2.1084-5.0849 2.129-2.1291 5.1056-2.1291h3.8034q1.0335 0 1.7776 0.74414 0.74414 0.74414 0.74414 1.7777v0.04134q0 1.0542-0.74414 1.757-0.74413 0.74414-1.7776 0.74414z"/>
   <path d="m234.64 45.748q2.0464 3.1212 6.1804 3.1212 2.5838 0 4.6715-2.0257 2.1704-2.067 2.1704-4.8162-2.3564 3.4106-6.8419 3.4106-4.9196 0-8.4129-3.4933-3.4933-3.4933-3.4933-8.4129 0-4.9196 3.4933-8.4129 3.4933-3.4933 8.4129-3.4933 4.8989 0 8.3922 3.4726 3.4933 3.452 3.514 8.3922v8.5369q0 4.8369-3.7413 8.4335-3.6173 3.4726-8.1648 3.4726-6.9659 0-10.439-5.4156-0.41341-0.64078-0.41341-1.3229 0-0.41341 0.1447-0.82682 0.37206-1.1575 1.5296-1.571l0.062-0.02067q0.51676-0.18603 0.99218-0.18603 1.1575 0 1.943 1.1575zm13.022-12.34q-0.0413-2.7905-2.0464-4.7542-1.9844-1.9637-4.7955-1.9637-2.8525 0-4.8576 2.005-1.9844 2.005-1.9844 4.8369 0 2.8525 1.9844 4.8575 2.005 1.9844 4.8576 1.9844t4.8369-1.9844q2.005-2.005 2.005-4.8575z"/>
   <path d="m268.77 21.626q4.9196 0 8.4129 3.4933 3.4933 3.4933 3.4933 8.4129v9.405q0 1.0542-0.74414 1.757-0.74413 0.74414-1.757 0.74414h-0.062q-1.0128 0-1.757-0.74414-0.74413-0.70279-0.74413-1.757-2.3564 2.5011-6.8419 2.5011-4.9196 0-8.4129-3.4933-3.4933-3.4933-3.4933-8.4129 0-4.9196 3.4933-8.4129 3.4933-3.4933 8.4129-3.4933zm0 5.0643q-2.8525 0-4.8576 2.005-1.9844 2.005-1.9844 4.8369 0 2.8525 1.9844 4.8575 2.005 1.9844 4.8576 1.9844t4.8369-1.9844q2.005-2.005 2.005-4.8575 0-2.8318-2.005-4.8369-2.005-2.005-4.8369-2.005z"/>
   <path d="m289.87 42.937q0 1.0542-0.74414 1.757-0.74413 0.74414-1.757 0.74414h-0.062q-1.0128 0-1.757-0.74414-0.74413-0.70279-0.74413-1.757v-11.369q0-4.0927 2.9145-7.0279 2.9145-2.9145 7.0279-2.9145 4.9196 0 7.4207 3.2659 2.4804-3.2659 7.4-3.2659 4.1134 0 7.0279 2.9145 2.9145 2.9352 2.9145 7.0279v11.369q0 1.0335-0.72347 1.757-0.74413 0.74414-1.7776 0.74414h-0.0413q-1.0542 0-1.757-0.74414-0.74413-0.70279-0.74413-1.757v-11.369q0-2.0257-1.4263-3.452t-3.4726-1.4263q-2.0257 0-3.452 1.4263t-1.4263 3.452v11.369q0 1.0542-0.74413 1.757-0.70279 0.74414-1.757 0.74414h-0.0413q-1.0335 0-1.7776-0.74414-0.74414-0.70279-0.74414-1.757v-11.369q0-2.0257-1.4263-3.452-1.4262-1.4263-3.452-1.4263t-3.452 1.4263-1.4263 3.452z"/>
   <path d="m334.94 26.731q-2.8525 0-4.8575 2.005-1.9844 2.005-1.9844 4.8575v0.14469l11.555-5.1883q-1.5296-1.819-4.7129-1.819zm10.811 1.8397q0.24804 0.51676 0.24804 1.0542 0 0.43408-0.16536 0.86816-0.3514 0.97151-1.3229 1.4056-2.8938 1.3022-7.6067 3.4313-5.8497 2.6458-6.8626 3.1212 1.571 1.9844 4.8989 1.9844 2.2117 0 4.0101-1.3022 1.757-1.2816 2.4598-3.3073 0.59944-1.695 2.3978-1.695 1.2816 0 2.0464 1.0749 0.47542 0.66145 0.47542 1.3849 0 0.43408-0.16536 0.88883-1.2196 3.5346-4.2788 5.705-3.1006 2.2531-6.9453 2.2531-4.9196 0-8.4128-3.4933-3.4933-3.4933-3.4933-8.4129 0-4.9196 3.4933-8.4129 3.4933-3.4933 8.4128-3.4933 3.5553 0 6.4905 1.943 2.9145 1.9017 4.3201 5.0022z"/>
   <path d="m356.45 26.69q-0.9095 0-1.5296 0.62011-0.62012 0.64078-0.62012 1.5296 0 1.2402 1.1989 1.8603 0.4134 0.22738 3.452 1.0335 2.4598 0.70279 3.6587 1.8397 1.7156 1.633 1.7156 4.6508 0 2.9765-2.1084 5.1056-2.129 2.1084-5.1056 2.1084h-5.395q-1.0128 0-1.757-0.74414-0.74414-0.70279-0.74414-1.757v-0.04134q0-1.0335 0.74414-1.7777 0.74413-0.74414 1.757-0.74414h5.6017q0.9095 0 1.5296-0.62011 0.62012-0.62011 0.62012-1.5296 0-1.1369-1.1782-1.7156-0.31005-0.14469-3.4726-1.0335-2.4598-0.72346-3.6587-1.9017-1.7156-1.6743-1.7156-4.7335 0-2.9765 2.1084-5.0849 2.129-2.1291 5.1056-2.1291h3.8034q1.0335 0 1.7776 0.74414 0.74414 0.74414 0.74414 1.7777v0.04134q0 1.0542-0.74414 1.757-0.74413 0.74414-1.7776 0.74414z"/>
   <path d="m391.55 21.626q1.8603 0 3.5966 0.5581 1.757 0.5581 1.757 2.3978v0.10335q0 1.2609-1.0128 2.005-0.70279 0.49609-1.4469 0.49609-0.39273 0-0.80614-0.12402-1.0128-0.33073-2.0877-0.33073-2.8525 0-4.8576 2.005-1.9844 2.005-1.9844 4.8575 0 2.8318 1.9844 4.8369 2.005 2.005 4.8576 2.005 1.0749 0 2.0877-0.33073 0.39274-0.12402 0.78547-0.12402 0.76481 0 1.4676 0.49609 1.0128 0.74414 1.0128 2.0257 0 1.819-1.757 2.3978-1.7363 0.53743-3.5966 0.53743-4.9196 0-8.4129-3.4933-3.4933-3.4933-3.4933-8.4129 0-4.9196 3.4933-8.4129 3.4933-3.4933 8.4129-3.4933z"/>
   <path d="m411.7 26.731q-2.8525 0-4.8575 2.005-1.9844 2.005-1.9844 4.8575 0 2.8318 1.9844 4.8369 2.005 2.005 4.8575 2.005 2.8318 0 4.8369-2.005t2.005-4.8369q0-2.8525-2.005-4.8575-2.005-2.005-4.8369-2.005zm0-5.1056q4.9196 0 8.4129 3.4933 3.4933 3.4933 3.4933 8.4129 0 4.9196-3.4933 8.4129-3.4933 3.4933-8.4129 3.4933t-8.4128-3.4933q-3.4933-3.4933-3.4933-8.4129 0-4.9196 3.4933-8.4129 3.4933-3.4933 8.4128-3.4933z"/>
   <path d="m432.19 42.937q0 1.0542-0.74413 1.757-0.74413 0.74414-1.757 0.74414h-0.062q-1.0128 0-1.757-0.74414-0.74414-0.70279-0.74414-1.757v-11.369q0-4.0927 2.9145-7.0279 2.9145-2.9145 7.0279-2.9145 4.9196 0 7.4207 3.2659 2.4804-3.2659 7.4-3.2659 4.1134 0 7.0279 2.9145 2.9145 2.9352 2.9145 7.0279v11.369q0 1.0335-0.72346 1.757-0.74414 0.74414-1.7777 0.74414h-0.0413q-1.0542 0-1.757-0.74414-0.74414-0.70279-0.74414-1.757v-11.369q0-2.0257-1.4263-3.452-1.4262-1.4263-3.4726-1.4263-2.0257 0-3.452 1.4263t-1.4263 3.452v11.369q0 1.0542-0.74414 1.757-0.70279 0.74414-1.757 0.74414h-0.0413q-1.0335 0-1.7777-0.74414-0.74413-0.70279-0.74413-1.757v-11.369q0-2.0257-1.4263-3.452t-3.452-1.4263-3.452 1.4263-1.4263 3.452z"/>
  </g>
  <circle cx="372.18" cy="40.939" r="4.4774"/>
 </g>
</svg>
