<?xml version="1.0" encoding="UTF-8"?>
<svg width="456" height="456" clip-rule="evenodd" fill-rule="evenodd" stroke-linejoin="round" stroke-miterlimit="2" version="1.1" viewBox="0 0 456 456" xml:space="preserve" xmlns="http://www.w3.org/2000/svg">
    <path d="m237.18 18.668c-64.743-0.30736-146.12 137.83-141.29 254.92 4.8353 117.09 69.14 162.65 149.52 162.79 80.378 0.14103 137.81-55.397 139.78-160.93 1.9623-105.53-83.267-256.47-148.01-256.78zm-17.385 69.584c22.118 0.46993 50.817 13.003 52.32 36.061 1.7186 26.352-18.332 25.205-18.332 25.205s11.458-23.487-2.291-33.799c-13.749-10.312-37.81-3.4379-38.383 13.748-0.57287 17.186 8.5938 29.216 44.111 28.07 35.518-1.1457 99.105 33.227 101.4 119.16 2.2914 85.929-68.171 123.17-112.28 125.46-44.11 2.2915-102.54-34.372-101.4-74.473s20.622-48.119 38.953-48.119 26.925 7.4467 3.4375 15.467c-23.487 8.0201-25.205 42.965 14.322 49.84 39.528 6.8744 92.231-10.886 89.939-69.318-2.2915-58.432-16.613-81.919-58.432-71.607-41.819 10.312-69.891-28.642-69.891-60.723 0-32.08 25.207-50.985 47.549-54.422 2.7927-0.42965 5.8169-0.6101 8.9766-0.54297zm-2.6758 156.93a17.186 17.186 0 0 1 17.186 17.186 17.186 17.186 0 0 1-17.186 17.188 17.186 17.186 0 0 1-17.186-17.188 17.186 17.186 0 0 1 17.186-17.186z" fill="#fff" fill-rule="nonzero" stroke-width=".83838"/>
</svg>
